<?xml version="1.0" encoding="utf-8"?>
<!-- Generator: Adobe Illustrator 19.0.0, SVG Export Plug-In . SVG Version: 6.00 Build 0)  -->
<svg version="1.1" id="Layer_1" xmlns="http://www.w3.org/2000/svg" xmlns:xlink="http://www.w3.org/1999/xlink" x="0px" y="0px"
	 viewBox="-219 233 520.5 96" style="enable-background:new -219 233 520.5 96;" xml:space="preserve">
<g id="XMLID_1_">
	<path id="XMLID_2_" d="M-157.2,303.2h-19.5v-2.1c2.7-0.3,4.3-0.9,5-1.6c0.7-0.8,1-2.6,1-5.4v-4.9h-21.7v4.9c0,2.9,0.3,4.7,1,5.4
		c0.7,0.8,2.3,1.3,5,1.6v2.1h-19.5v-2.1c2.7-0.3,4.4-0.9,5-1.7c0.6-0.8,0.9-2.9,0.9-6.4v-5.6c0.3-3.5,0.7-6.7,1.1-9.6
		c1.1-7,2.4-12,4.1-15.1c1.9-3.5,3.8-6.3,5.7-8.4c1.9-2.2,4.6-4.4,7.9-6.7c3.1,2.4,5.6,4.7,7.4,6.9c1.8,2.1,3.6,4.9,5.4,8.3
		c2,3.9,3.8,12.2,5.2,25.1v5.1c0,3.5,0.3,5.6,0.9,6.4s2.3,1.3,5.1,1.7C-157.2,301.1-157.2,303.2-157.2,303.2z M-170.7,283.9
		c-0.3-9.1-1-15.4-2.2-18.9c-2-6-4.8-11-8.2-15c-2.4,2.3-4.2,4.6-5.5,6.9c-1.1,1.9-2.2,4.6-3.5,8.1c-1.6,4.5-2.3,10.8-2.2,18.9
		H-170.7z M-170.7,286.7v-1.4h-21.7v1.4H-170.7z"/>
	<path id="XMLID_47_" d="M-107.9,257.8c-2.4,0.2-4,0.8-4.8,1.8c-0.4,0.6-1.4,2-2.8,4.4v47.1l-5.1,8.7v-56.7l-20.6-7.2V291
		c0,4.5,0.6,6.8,1.7,8.2c0.7,0.9,2.3,1.5,4.7,1.9v2.1h-20v-2.1c3.1-0.4,5.1-1.6,5.9-3.5c0.5-1.1,0.7-2.9,0.7-6.7v-33.1
		c0-3-0.4-5-1.3-6c-0.8-0.9-2.5-1.5-5.2-1.7v-0.9h15.4l18.8,7.6h12.6L-107.9,257.8L-107.9,257.8z"/>
	<path id="XMLID_49_" d="M-86.8,301.4c2.7-0.4,4.4-1,5-1.9c0.6-0.8,0.9-2.6,0.9-5.5v-36.3c0-2.7-0.3-4.6-1-5.4c-0.8-1-2.4-1.6-5-1.9
		v-1.5h38.4l-3.3,11.7h-1.7c0.4-3.6,0.2-5.9-0.7-7s-3.6-1.6-8.4-1.6h-9.2c-1,0-1.6,0.2-1.9,0.7c-0.2,0.3-0.3,1-0.3,2.1V273h16.8
		l-6.3,3.2H-74v20.2c0,1.6,0.4,2.6,1.2,2.9s3.4,0.4,7.7,0.4c4.9,0,8.3-0.6,10.3-1.9c2.2-1.4,4.2-4.3,5.8-8.7h1.9l-3.1,13.8H-87v-1.5
		H-86.8L-86.8,301.4z"/>
	<path id="XMLID_51_" d="M-43.9,301.4c2.7-0.3,4.4-1.1,5.1-2.4c0.5-0.8,0.7-2.8,0.7-5.9v-35.4c0-2.7-0.3-4.5-0.9-5.3
		c-0.7-1-2.4-1.7-4.9-2v-1.5H-26c5.1,0,9.3,1.1,12.4,3.4c3.6,2.6,5.4,6.3,5.4,11.2c0,5.3-1.7,9.3-5,12.1c-3.1,2.5-7.3,3.8-12.8,3.8
		c-1.2,0-2.2,0-2.8,0l-2.5-0.1v14.9c0,3.1,0.4,5,1.1,5.8c0.8,0.8,2.5,1.3,5.3,1.6v1.5h-19C-43.9,303.1-43.9,301.4-43.9,301.4z
		 M-28.3,251.9c-1.3,0-2.1,0.2-2.5,0.5c-0.4,0.3-0.6,1.1-0.6,2.3V276c0.7,0.1,1.5,0.1,2.4,0.2c0.2,0,0.6,0,1.1,0
		c3.1,0,5.6-0.5,7.4-1.6c3.3-1.9,4.9-5.6,4.9-10.9C-15.6,255.9-19.8,252-28.3,251.9z"/>
	<path id="XMLID_54_" d="M-7.3,301.4c2.9-0.3,4.8-0.8,5.5-1.7s1.1-2.7,1.1-5.7v-36.3c0-2.9-0.4-4.7-1.2-5.6c-0.8-1-2.7-1.5-5.5-1.7
		v-1.5h20.2v1.5c-2.8,0.1-4.6,0.6-5.4,1.5s-1.3,2.8-1.3,5.8V294c0,3.1,0.4,5.1,1.2,5.9c0.7,0.7,2.5,1.2,5.4,1.5v1.5H-7.5v-1.5
		L-7.3,301.4L-7.3,301.4z"/>
	<path id="XMLID_56_" d="M46.2,249.3c2.5,0.9,4.4,1.3,5.6,1.3c1.3,0,2.3-0.6,3.2-1.7c0.2-0.3,0.4-0.6,0.6-0.9H57l-4.3,18.3h-1.6
		c0.1-3.7-0.3-6.6-1.2-8.8c-1.7-4.2-5.2-6.3-10.7-6.3c-5.7,0-10,2.9-12.9,8.9c-2.2,4.6-3.3,10.1-3.3,16.5c0,7.4,1.6,13.2,4.8,17.5
		s7.2,6.5,12.1,6.5c3.5,0,6.7-1,9.7-3c1.8-1.2,3.6-2.9,5.6-5.2l1.3,1.5c-1.5,2.3-3.4,4.3-5.6,6c-3.8,2.9-7.9,4.4-12.4,4.4
		c-7.3,0-13.1-2.8-17.4-8.4c-4-5.2-5.9-11.6-5.9-19.4c0-7.9,2.1-14.6,6.3-20c4.4-5.7,10.1-8.5,17.2-8.5
		C41.1,247.9,43.6,248.4,46.2,249.3z"/>
	<path id="XMLID_58_" d="M84.5,254.9c4.2-4.8,9.3-7.2,15.5-7.2c6,0,11.1,2.4,15.4,7.1c4.6,5.2,6.9,12.2,6.9,21.1
		c0,6.7-1.4,12.4-4.1,17.2c-3.2,5.5-7.8,8.9-13.9,10.3c2.7,4.7,6,8.1,10,10.1c2.1,1.1,5.1,1.9,8.9,2.5v1.5h-2.8
		c-3.7,0-7-0.4-9.8-1.1c-1.4-0.4-3.8-1.6-7.1-3.6c-0.9-0.6-1.8-1.5-2.7-2.7c-0.8-1.2-1.7-2.4-2.5-3.6c-0.7-0.8-1.5-1.5-2.5-2
		c-1-0.4-1.9-0.9-2.8-1.3l-0.9-0.5c-3.6-1.9-6.5-4.3-8.7-7.2c-3.8-4.9-5.7-11.5-5.7-19.5C77.7,267.2,80,260.2,84.5,254.9z
		 M100,301.1c5.4,0,9.4-3,11.9-9.2c1.8-4.4,2.7-9.7,2.7-16c0-6.4-0.9-11.7-2.6-16c-2.5-6.1-6.5-9.2-11.9-9.2s-9.4,3-11.9,9.2
		c-1.8,4.4-2.7,9.8-2.7,16c0,6.3,0.9,11.7,2.7,16C90.6,298,94.5,301.1,100,301.1z M99.9,280.8l-4.8-4.8l4.8-4.8l4.8,4.8L99.9,280.8z
		"/>
	<path id="XMLID_62_" d="M156.8,257.8c0-2.9-0.6-4.9-1.3-5.7c-0.7-0.8-2.3-1.4-4.9-1.7v-1.5h18.9v1.5c-2.8,0.4-4.6,1.1-5.3,2.3
		c-0.5,0.8-0.7,2.8-0.7,6.1c0,0,0,3.9-0.1,5.2c-0.3,3.6-0.7,7-1.2,10.1c-1.2,7.3-2.4,12.2-3.8,14.8c-1.8,3.4-3.6,6.1-5.3,8.2
		c-1.8,2.1-4.2,4.3-7.2,6.7c-3.2-2.2-5.7-4.4-7.6-6.5c-1.9-2.1-3.8-4.9-5.6-8.4c-3.1-5.7-4.8-13.8-5.1-24.5v-5.6
		c0-3.2-0.2-5.3-0.7-6.1c-0.7-1.2-2.4-1.9-5.3-2.3v-1.5h18.9v1.5c-2.6,0.3-4.2,0.9-4.9,1.7c-0.8,0.9-1.1,2.8-1.1,5.7v9.8
		c-0.1,8.5,0.7,14.9,2.2,19.4c1.3,3.6,2.5,6.4,3.6,8.3c1.4,2.3,3.1,4.7,5.6,7.1c3.6-4.2,6.7-9.3,8.7-15.4c1.3-3.8,2-10.3,2.2-19.5
		V257.8L156.8,257.8z"/>
	<path id="XMLID_64_" d="M172.7,301.4c2.7-0.4,4.4-1,5-1.9c0.6-0.8,0.9-2.6,0.9-5.5v-36.3c0-2.7-0.3-4.6-1-5.4c-0.8-1-2.4-1.6-5-1.9
		v-1.5H211l-3.3,11.7H206c0.4-3.6,0.2-5.9-0.7-7s-3.6-1.6-8.4-1.6h-9.2c-1,0-1.6,0.2-1.9,0.7c-0.2,0.3-0.3,1-0.3,2.1V273h16.8
		l-6.3,3.2h-10.5v20.2c0,1.6,0.4,2.6,1.2,2.9c0.8,0.3,3.4,0.4,7.7,0.4c4.9,0,8.3-0.6,10.3-1.9c2.2-1.4,4.2-4.3,5.8-8.7h1.9
		l-3.1,13.8h-36.8v-1.5H172.7L172.7,301.4z"/>
	<path id="XMLID_66_" d="M247.6,290.2c0,4.3-1.6,7.6-4.9,10.1c-3,2.3-6.7,3.4-11,3.4c-4.3,0-7.9-1.1-10.8-3.3
		c-3.3-2.4-4.9-5.7-5-9.8c0-3.4,1-6.4,3.2-9c1.2-1.5,3.7-3.5,7.3-6c-3.5-2.7-5.8-5-7.1-6.7c-1.9-2.6-2.9-5.4-3-8.5
		c0-3.9,1.7-7.1,5.1-9.5c3-2.1,6.6-3.1,10.7-3.1c3.7,0,6.9,1,9.5,2.9c2.9,2.2,4.4,5,4.5,8.6c0,1.2-1.1,2.4-3.4,3.7
		c-3.5,1.9-5.3,2.8-5.3,2.9l-0.1-0.1c2-2.5,3-4.7,3-6.6c0-2.5-0.8-4.6-2.4-6.4c-1.5-1.7-3.9-2.6-7-2.7c-2.3,0-4.3,0.7-6,2.2
		c-1.7,1.5-2.5,3.4-2.5,5.7c0,2.5,0.9,4.8,2.8,7c1.5,1.7,4,3.7,7.4,6c5.3,3.4,9.3,6.9,12,10.4C246.6,283.9,247.5,286.9,247.6,290.2z
		 M241.3,292.6c0-2.8-0.8-5.1-2.5-7c-1.5-1.6-4.9-4.4-10.2-8.2c-2.3,1.6-4,3.4-5,5.6c-1,2.3-1.6,4.5-1.6,6.6c0,3.3,0.8,6.1,2.4,8.3
		c1.8,2.4,4.3,3.7,7.5,3.7c2.8,0,5.1-0.8,6.7-2.4C240.2,297.6,241.3,295.4,241.3,292.6z"/>
	<path id="XMLID_69_" d="M283.5,260h-1.7c0.1-0.8,0.1-1.4,0.1-2c0-1.1-0.2-1.9-0.5-2.5c-0.4-0.4-0.8-0.9-1.1-1.3c-1-1.3-3.4-2-7.2-2
		h-3.8l0.3,40.8c0,3.3,0.3,5.4,0.9,6.2c0.7,1.1,2.6,1.8,5.6,2.1v1.5h-19.8v-1.5c2.9-0.3,4.7-0.8,5.4-1.5c0.8-0.8,1.3-2.8,1.2-5.9
		l-0.4-41.6l-14.5-0.1l2.6-10.2h1.6c0,0.5-0.1,1-0.1,1.4c0,1.1,0.2,1.9,0.6,2.3c0.4,0.4,0.8,0.8,1.2,1.1c0.9,1.3,3.3,2,7.2,2
		l25.2,0.1L283.5,260z"/>
</g>
</svg>
