<?xml version="1.0" encoding="utf-8"?>
<!-- Generator: Adobe Illustrator 19.0.0, SVG Export Plug-In . SVG Version: 6.00 Build 0)  -->
<svg version="1.1" id="the-story-svg" xmlns="http://www.w3.org/2000/svg" xmlns:xlink="http://www.w3.org/1999/xlink" x="0px" y="0px"
	 viewBox="-278.8 453.1 374 94.9" style="enable-background:new -278.8 453.1 374 94.9;" xml:space="preserve">
<g id="XMLID_16_">
	<path id="XMLID_24_" d="M-97.5,512.7c0,4.3-1.6,7.6-4.9,10.2c-3,2.3-6.7,3.4-11.1,3.4c-4.3,0-7.9-1.1-10.9-3.3
		c-3.3-2.4-4.9-5.7-5-9.9c0-3.4,1-6.4,3.2-9c1.2-1.5,3.7-3.5,7.3-6c-3.5-2.7-5.8-5-7.1-6.7c-1.9-2.6-2.9-5.4-3-8.5
		c0-3.9,1.7-7.1,5.1-9.6c3-2.1,6.6-3.1,10.8-3.1c3.7,0,6.9,1,9.6,2.9c2.9,2.2,4.4,5,4.5,8.6c0,1.2-1.1,2.4-3.4,3.7
		c-3.5,1.9-5.3,2.8-5.3,2.9l-0.1-0.1c2-2.5,3-4.7,3-6.6c0-2.5-0.8-4.6-2.4-6.4c-1.5-1.7-3.9-2.6-7-2.7c-2.3,0-4.3,0.7-6,2.2
		s-2.5,3.4-2.5,5.7c0,2.5,0.9,4.8,2.8,7c1.5,1.7,4,3.7,7.4,6c5.3,3.4,9.3,6.9,12.1,10.5C-98.5,506.3-97.5,509.3-97.5,512.7z
		 M-103.7,515.1c0-2.8-0.8-5.1-2.5-7c-1.5-1.6-4.9-4.4-10.3-8.2c-2.3,1.6-4,3.4-5,5.6c-1,2.3-1.6,4.5-1.6,6.6c0,3.3,0.8,6.1,2.4,8.3
		c1.8,2.4,4.3,3.7,7.5,3.7c2.8,0,5.1-0.8,6.7-2.4C-104.8,520.1-103.8,517.9-103.7,515.1z"/>
	<path id="XMLID_27_" d="M-59.8,482.3h-1.7c0.1-0.8,0.1-1.4,0.1-2c0-1.1-0.2-1.9-0.5-2.5c-0.4-0.4-0.8-0.9-1.1-1.3
		c-1-1.3-3.4-2-7.2-2h-3.8l0.3,42.7c0,3.3,0.3,5.4,0.9,6.2c0.7,1.1,2.6,1.8,5.6,2.1v1.5H-87v-1.5c2.9-0.3,4.7-0.8,5.4-1.5
		c0.8-0.8,1.3-2.8,1.2-5.9l-0.3-43.7l-14.5-0.1l2.6-10.2h1.6c0,0.5-0.1,1-0.1,1.4c0,1.1,0.2,1.9,0.6,2.3c0.4,0.4,0.8,0.8,1.2,1.1
		c0.9,1.3,3.3,2,7.2,2l25.2,0.1L-59.8,482.3z"/>
	<path id="XMLID_29_" d="M-10.4,498.2c0,8.8-2.3,15.9-7,21.1c-4.2,4.7-9.3,7-15.3,7c-7.1,0-12.7-3-16.8-9
		c-3.6-5.3-5.4-11.7-5.4-19.1c0-8.7,2.3-15.7,6.8-21c4.2-4.8,9.3-7.2,15.5-7.2c7.2,0,12.8,3,16.9,9.1
		C-12.2,484.3-10.4,490.8-10.4,498.2z M-18.2,498.2c0-6.4-0.9-11.7-2.6-16c-2.5-6.1-6.5-9.2-11.9-9.2s-9.4,3-11.9,9.2
		c-1.8,4.4-2.7,9.8-2.7,16c0,6.3,0.9,11.7,2.7,16c2.5,6.1,6.5,9.1,11.9,9.2c5.4,0,9.4-3,11.9-9.2C-19.1,509.8-18.2,504.5-18.2,498.2
		z M-32.8,503l-4.8-4.8l4.8-4.8l4.8,4.8L-32.8,503z"/>
	<path id="XMLID_33_" d="M-8.3,525.6c2.7-0.3,4.5-3,5.2-4.3c0.5-0.9,0.7-2.9,0.7-6V480c0-2.7-0.3-4.5-0.9-5.3c-0.8-1-2.4-1.7-4.9-2
		v-1.5h18.9c3.9,0,7.2,0.6,9.8,1.8c4.9,2.2,7.4,6.4,7.4,12.5c0,7.6-4.1,12.1-12.3,13.7c1.4,2.3,2.8,4.5,4.2,6.6
		c3.2,4.9,6,8.7,8.4,11.3c3.9,4.4,9.9,9.7,18.1,16c0.7,0.6,1.6,1.1,2.5,1.4c1,0.4,1.6,0.6,1.7,0.6c0.3,0.2,0.9,0.3,1.8,0.4
		c1.3,0,2,0.1,2.2,0.1v1.5H43.9c-2.7-1.9-5.3-3.8-7.7-5.6c-5.7-4.4-10.1-8.2-13.1-11.4c-4.1-4.4-9-11-14.7-19.9l-3.8,0.2v16.1
		c0,3,0.4,5,1.1,5.8s2.4,2.9,5,3.2v1.5H-8.3v-1.7V525.6z M15.1,495.3c3.6-1.7,5.4-5.1,5.4-10.1c0-4.7-1.6-7.9-4.9-9.7
		c-1.7-0.9-4-1.4-6.9-1.4c-1.7,0-2.7,0.1-3.1,0.3c-0.7,0.3-1.1,1.2-1.1,2.6v20.1C9.5,497,13,496.5,15.1,495.3z"/>
	<path id="XMLID_36_" d="M65.4,477.4c0-1.3-0.1-2.2-0.3-2.6c-0.1-0.2-0.4-0.5-0.9-1.1c-0.7-0.8-2.3-1.4-4.9-1.7v-1.5h18.9v1.5
		c-2.7,0.3-4.3,0.9-5,1.8c-0.7,0.8-1,2.4-1,4.6v-0.2c-0.4,1.9-0.8,3.6-1.3,5.3c-1.2,4.1-2.4,7.4-3.8,10c-1.5,2.8-3.3,5-5.3,6.5
		c-2.4,1.7-4.8,3.4-7.2,5c-2.5-1.6-5.1-3.3-7.6-4.9c-2.2-1.6-4.1-3.8-5.6-6.7c-3.1-5.7-4.8-10.6-5.1-14.8v-0.3c0-2.2-0.3-3.7-1-4.6
		c-0.7-0.8-2.3-1.4-5-1.8v-1.5h18.9v1.5c-2.6,0.3-4.2,0.9-4.9,1.7c-0.5,0.6-0.8,0.9-0.9,1.1c-0.2,0.4-0.3,1.3-0.3,2.6v4.5
		c-0.1,2,0.7,5.3,2.2,9.7c1,2.9,2.2,5.1,3.6,6.6c1.9,1.8,3.9,3.6,5.8,5.4c1.7-1.9,3.4-3.7,5.1-5.5c1.4-1.7,2.5-3.9,3.4-6.5
		c1.3-3.8,2-7.1,2.2-9.8L65.4,477.4L65.4,477.4z M57.9,502.5l0.2,15.7c0,3.2,0.5,5.2,1.3,5.9c0.8,0.8,2.7,1.2,5.7,1.4v1.5H44.3v-1.3
		c3.1-0.2,5.1-0.9,5.9-2c0.6-0.9,1-3,1-6.4v-15l3.7-10.9L57.9,502.5z"/>
</g>
<g>
	<path d="M-202.1,527h-18.4l0-1c2.7-0.3,4.3-0.9,5.1-1.9c0.7-1,1.1-3.2,1.1-6.7l0-40.4l-13.7,9.4v45.8l-3.5,7.6v-53.3l-14.3-9.6
		l0,38.3c0,4.5,0.6,7.5,1.7,8.9c0.7,0.9,2.3,1.5,4.7,1.9l0,1h-20l0-1c3.1-0.4,5.1-1.6,5.9-3.5c0.5-1.1,0.7-3.6,0.7-7.4l0-35.7
		c0-3-0.4-5-1.3-5.9c-0.8-0.9-2.5-1.5-5.2-1.7v-1.5h15.4l14.4,10.2l15-10.2h12.5v1.5c-2.4,0.2-4,0.8-4.8,1.8s-1.2,2.9-1.2,5.8
		l0,38.8c0,3,0.4,5,1.2,5.9c0.7,0.8,2.3,1.4,4.8,1.8L-202.1,527z"/>
	<path d="M-163.5,477.2c0-1.3-0.1-2.2-0.3-2.6c-0.1-0.2-0.4-0.5-0.9-1.1c-0.7-0.8-2.3-1.4-4.9-1.7v-1.5h18.9v1.5
		c-2.7,0.3-4.3,0.9-5,1.8s-1,2.4-1,4.6V478c-0.4,1.9-0.8,3.6-1.3,5.3c-1.2,4.1-2.4,7.4-3.8,10c-1.5,2.8-3.3,5-5.3,6.5
		c-2.4,1.7-4.8,3.4-7.2,5c-2.5-1.6-5.1-3.3-7.6-4.9c-2.2-1.6-4.1-3.8-5.6-6.7c-3.1-5.7-4.8-10.6-5.1-14.8v-0.3c0-2.2-0.3-3.7-1-4.6
		c-0.7-0.8-2.3-1.4-5-1.8v-1.5h18.9v1.5c-2.6,0.3-4.2,0.9-4.9,1.7c-0.5,0.6-0.8,0.9-0.9,1.1c-0.2,0.4-0.3,1.3-0.3,2.6v4.5
		c-0.1,2,0.7,5.3,2.2,9.7c1,2.9,2.2,5.1,3.6,6.6c1.9,1.8,3.9,3.6,5.8,5.4c1.7-1.9,3.4-3.7,5.1-5.5c1.4-1.7,2.5-3.9,3.4-6.5
		c1.3-3.8,2-7.1,2.2-9.8V477.2z M-170.9,502.4l0.2,15.7c0,3.2,0.5,5.2,1.3,5.9c0.8,0.8,2.7,1.2,5.7,1.4v1.5h-20.8v-1.5
		c3.1-0.2,5.1-0.9,5.9-2c0.6-0.9,1-3,1-6.4v-15l3.7-10.9L-170.9,502.4z"/>
</g>
</svg>
