<?xml version="1.0" encoding="utf-8"?>
<!-- Generator: Adobe Illustrator 19.0.0, SVG Export Plug-In . SVG Version: 6.00 Build 0)  -->
<svg version="1.1" id="Layer_1" xmlns="http://www.w3.org/2000/svg" xmlns:xlink="http://www.w3.org/1999/xlink" x="0px" y="0px"
	 viewBox="-187 233.8 583.3 94.2" style="enable-background:new -187 233.8 583.3 94.2;" xml:space="preserve">
<path id="XMLID_56_" d="M-164.8,305c2.7-0.3,4.4-1.1,5.1-2.4c0.5-0.8,0.7-2.8,0.7-5.9v-35.5c0-2.7-0.3-4.5-0.9-5.3
	c-0.7-1-2.4-1.7-4.9-2v-1.5h17.9c5.1,0,9.3,1.1,12.4,3.4c3.6,2.6,5.4,6.3,5.4,11.2c0,5.3-1.7,9.3-5,12.1c-3.1,2.5-7.3,3.8-12.8,3.8
	c-1.2,0-2.2,0-2.8,0l-2.5-0.1v14.9c0,3.1,0.4,5,1.1,5.8c0.8,0.8,2.5,1.3,5.3,1.6v1.5h-19V305z M-149.2,255.5c-1.3,0-2.1,0.2-2.5,0.5
	c-0.4,0.3-0.6,1.1-0.6,2.3v21.3c0.7,0.1,1.5,0.1,2.4,0.2c0.2,0,0.6,0,1.1,0c3.1,0,5.6-0.5,7.4-1.6c3.3-1.9,4.9-5.6,4.9-10.9
	C-136.5,259.4-140.7,255.5-149.2,255.5z"/>
<path id="XMLID_59_" d="M-82.1,306.8h-19.5v-2.1c2.7-0.3,4.3-0.9,5-1.6s1-2.6,1-5.4v-4.9h-21.7v4.9c0,2.9,0.3,4.7,1,5.4
	c0.7,0.8,2.3,1.3,5,1.6v2.1h-19.5v-2.1c2.7-0.3,4.4-0.9,5.1-1.7c0.6-0.8,0.9-2.9,0.9-6.4V291c0.3-3.5,0.7-6.7,1.1-9.6
	c1.1-7,2.4-12,4.1-15.1c1.9-3.5,3.8-6.3,5.7-8.4c1.9-2.2,4.6-4.4,7.9-6.7c3.1,2.4,5.6,4.7,7.4,6.9c1.8,2.1,3.6,4.9,5.4,8.3
	c2,3.9,3.8,12.2,5.2,25.1v5.1c0,3.5,0.3,5.6,0.9,6.4c0.6,0.8,2.3,1.3,5.1,1.7L-82.1,306.8L-82.1,306.8z M-95.6,287.4
	c-0.3-9.1-1-15.4-2.2-18.9c-2-6-4.8-11-8.2-15c-2.4,2.3-4.2,4.6-5.5,6.9c-1.1,1.9-2.2,4.6-3.5,8.1c-1.6,4.5-2.3,10.8-2.2,18.9H-95.6
	z M-95.6,290.2v-1.4h-21.7v1.4H-95.6z"/>
<path id="XMLID_63_" d="M-48.9,293.7c0,4.3-1.6,7.6-4.9,10.1c-3,2.3-6.7,3.4-11,3.4s-7.9-1.1-10.8-3.3c-3.3-2.4-4.9-5.7-5-9.8
	c0-3.4,1-6.4,3.2-9c1.2-1.5,3.7-3.5,7.3-6c-3.5-2.7-5.8-5-7.1-6.7c-1.9-2.6-2.9-5.4-3-8.5c0-3.9,1.7-7.1,5.1-9.5
	c3-2.1,6.6-3.1,10.7-3.1c3.7,0,6.9,1,9.5,2.9c2.9,2.2,4.4,5,4.5,8.6c0,1.2-1.1,2.4-3.4,3.7c-3.5,1.9-5.3,2.8-5.3,2.9l-0.1-0.1
	c2-2.5,3-4.7,3-6.6c0-2.5-0.8-4.6-2.4-6.4c-1.5-1.7-3.9-2.6-7-2.7c-2.3,0-4.3,0.7-6,2.2c-1.7,1.5-2.5,3.4-2.5,5.7
	c0,2.5,0.9,4.8,2.8,7c1.5,1.7,4,3.7,7.4,6c5.3,3.4,9.3,6.9,12,10.4C-49.9,287.4-48.9,290.4-48.9,293.7z M-55.1,296.1
	c0-2.8-0.8-5.1-2.5-7c-1.5-1.6-4.9-4.4-10.2-8.2c-2.3,1.6-4,3.4-5,5.6c-1,2.3-1.6,4.5-1.6,6.6c0,3.3,0.8,6.1,2.4,8.3
	c1.8,2.4,4.3,3.7,7.5,3.7c2.8,0,5.1-0.8,6.7-2.4C-56.2,301.1-55.2,298.9-55.1,296.1z"/>
<path id="XMLID_66_" d="M-13.2,252.8c2.5,0.9,4.4,1.3,5.6,1.3c1.3,0,2.3-0.6,3.2-1.7c0.2-0.3,0.4-0.6,0.6-0.9h1.4l-4.3,18.3h-1.6
	c0.1-3.7-0.3-6.6-1.2-8.8c-1.7-4.2-5.2-6.3-10.7-6.3c-5.7,0-10,2.9-12.9,8.9c-2.2,4.6-3.3,10.1-3.3,16.5c0,7.4,1.6,13.2,4.8,17.5
	c3.2,4.3,7.2,6.5,12.1,6.5c3.5,0,6.7-1,9.7-3c1.8-1.2,3.6-2.9,5.6-5.2l1.3,1.5c-1.5,2.3-3.4,4.3-5.6,6c-3.8,2.9-7.9,4.4-12.4,4.4
	c-7.3,0-13.1-2.8-17.4-8.4c-4-5.2-5.9-11.6-5.9-19.4c0-7.9,2.1-14.6,6.3-20c4.4-5.7,10.1-8.5,17.2-8.5
	C-18.3,251.4-15.8,251.9-13.2,252.8z"/>
<path id="XMLID_68_" d="M35.5,261c0-2.9-0.4-4.9-1.1-5.7c-0.7-0.8-2.3-1.4-4.9-1.7v-1.5h18.9v1.5c-2.8,0.4-4.6,1.1-5.3,2.3
	c-0.5,0.8-0.7,2.8-0.7,6.1v5.1c-0.4,3.7-0.8,7.1-1.3,10.2c-1.2,7.3-2.4,12.2-3.8,14.8c-1.8,3.4-3.6,6.1-5.3,8.2
	c-1.8,2.1-4.2,4.3-7.2,6.7c-3.2-2.2-5.7-4.4-7.6-6.5c-1.9-2.1-3.8-4.9-5.6-8.4c-3.1-5.7-4.8-13.8-5.1-24.5V262
	c0-3.2-0.2-5.3-0.7-6.1c-0.7-1.2-2.4-1.9-5.3-2.3v-1.5h18.9v1.5c-2.6,0.3-4.2,0.9-4.9,1.7c-0.8,0.9-1.1,2.8-1.1,5.7v9.8
	c-0.1,8.5,0.7,14.9,2.2,19.4c1.3,3.6,2.5,6.4,3.6,8.3c1.4,2.3,3.3,4.7,5.8,7.1c3.6-4.2,6.5-9.3,8.5-15.4c1.3-3.8,2-10.3,2.2-19.5
	V261H35.5z"/>
<path id="XMLID_70_" d="M115.4,306.8H95.8v-2.1c2.7-0.3,4.3-0.9,5-1.6s1-2.6,1-5.4v-4.9H80.1v4.9c0,2.9,0.3,4.7,1,5.4
	c0.7,0.8,2.3,1.3,5,1.6v2.1H66.5v-2.1c2.7-0.3,4.4-0.9,5.1-1.7c0.6-0.8,0.9-2.9,0.9-6.4V291c0.3-3.5,0.7-6.7,1.1-9.6
	c1.1-7,2.4-12,4.1-15.1c1.9-3.5,3.8-6.3,5.7-8.4c1.9-2.2,4.6-4.4,7.9-6.7c3.1,2.4,5.6,4.7,7.4,6.9c1.8,2.1,3.6,4.9,5.4,8.3
	c2,3.9,3.8,12.2,5.2,25.1v5.1c0,3.5,0.3,5.6,0.9,6.4c0.6,0.8,2.3,1.3,5.1,1.7v2.1H115.4z M101.9,287.4c-0.3-9.1-1-15.4-2.2-18.9
	c-2-6-4.8-11-8.2-15c-2.4,2.3-4.2,4.6-5.5,6.9c-1.1,1.9-2.2,4.6-3.5,8.1c-1.6,4.5-2.3,10.8-2.2,18.9H101.9z M101.9,290.2v-1.4H80.2
	v1.4H101.9z"/>
<path id="XMLID_74_" d="M164.7,261.3c-2.4,0.2-4,0.8-4.8,1.8c-0.4,0.6-1.4,2-2.8,4.4v47.1l-5.1,8.7v-56.7l-20.6-7.2v35.1
	c0,4.5,0.6,6.9,1.7,8.3c0.7,0.9,2.3,1.5,4.7,1.9v2.1h-20v-2.1c3.1-0.4,5.1-1.6,5.9-3.5c0.5-1.1,0.7-3,0.7-6.8v-33.1c0-3-0.4-5-1.3-6
	c-0.8-0.9-2.5-1.5-5.2-1.7v-0.9h15.4l18.8,7.6h12.6L164.7,261.3L164.7,261.3z"/>
<path id="XMLID_76_" d="M162.4,305c2.7-0.4,4.4-1,5.1-1.9c0.6-0.8,0.9-2.6,0.9-5.5v-36.4c0-2.9-0.4-4.8-1.1-5.7
	c-0.7-0.8-2.4-1.4-4.9-1.6v-1.5h18.3c6.2,0,11.4,1.2,15.7,3.7c7.7,4.4,11.6,12.2,11.6,23.5c0,8.9-2.8,15.9-8.3,20.9
	c-1.7,1.6-3.6,2.8-5.5,3.6c-3.5,1.6-7.8,2.3-12.8,2.3h-18.9V305H162.4z M179.4,303.4c5.3,0,9.7-1.2,13.1-3.8
	c5.3-3.9,7.9-10.5,7.9-19.9c0-7.3-1.7-13.1-5.1-17.4c-3.7-4.6-9.1-6.9-16.2-6.9c-1.5,0-2.5,0.2-3,0.5c-0.6,0.4-1,1.4-1,2.7v41.5
	c0,1.4,0.3,2.4,1,2.8C176.8,303.2,177.8,303.4,179.4,303.4z M186.2,284.3l-4.8-4.8l4.8-4.8l4.8,4.8L186.2,284.3z"/>
<path id="XMLID_80_" d="M209.1,305c2.7-0.3,4.5-1.1,5.2-2.4c0.5-0.9,0.7-2.9,0.7-6v-35.4c0-2.7-0.3-4.5-0.9-5.3
	c-0.8-1-2.4-1.7-4.9-2v-1.5H228c3.9,0,7.2,0.6,9.8,1.8c4.9,2.2,7.4,6.4,7.4,12.5c0,7.6-4.1,12.1-12.3,13.7c1.4,2.3,2.8,4.5,4.2,6.6
	c3.2,4.9,6,8.7,8.4,11.3c3.9,4.4,9.9,9.7,18.1,16c0.7,0.6,1.6,1.1,2.5,1.4c1,0.4,1.6,0.6,1.7,0.6c0.3,0.2,0.9,0.3,1.8,0.4
	c1.3,0,2,0.1,2.2,0.1v1.5h-10.7c-2.7-1.9-5.3-3.8-7.7-5.6c-5.7-4.4-10.1-8.2-13.1-11.4c-4.1-4.4-9-11-14.7-19.9l-3.8,0.2v16.1
	c0,3,0.4,5,1.1,5.8c0.7,0.8,2.4,1.3,5,1.6v1.5H209V305H209.1z M232.4,276.7c3.6-1.7,5.4-5.1,5.4-10.1c0-4.7-1.6-7.9-4.9-9.7
	c-1.7-0.9-4-1.4-6.9-1.4c-1.7,0-2.7,0.1-3.1,0.3c-0.7,0.3-1.1,1.2-1.1,2.6v20.1C226.8,278.3,230.3,277.7,232.4,276.7z"/>
<path id="XMLID_83_" d="M248.3,305c2.7-0.4,4.4-1,5-1.9c0.6-0.8,0.9-2.6,0.9-5.5v-36.4c0-2.7-0.3-4.6-1-5.4c-0.8-1-2.4-1.6-5-1.9
	v-1.5h38.4l-3.3,11.7h-1.7c0.4-3.6,0.2-5.9-0.7-7s-3.6-1.6-8.4-1.6h-9.2c-1,0-1.6,0.2-1.9,0.7c-0.2,0.3-0.3,1-0.3,2.1v18.2H278
	l-6.3,3.2h-10.5v20.2c0,1.6,0.4,2.6,1.2,2.9c0.8,0.3,3.4,0.4,7.7,0.4c4.9,0,8.3-0.6,10.3-1.9c2.2-1.4,4.2-4.3,5.8-8.7h1.9l-3.1,13.8
	h-36.8L248.3,305L248.3,305z"/>
<path id="XMLID_85_" d="M291,305c2.9-0.3,4.8-0.8,5.5-1.7c0.8-0.8,1.1-2.7,1.1-5.7v-36.4c0-2.9-0.4-4.7-1.2-5.6
	c-0.8-1-2.7-1.5-5.5-1.7v-1.5h20.2v1.5c-2.8,0.1-4.6,0.6-5.4,1.5s-1.3,2.8-1.3,5.8v36.3c0,3.1,0.4,5.1,1.2,5.9
	c0.7,0.7,2.5,1.2,5.4,1.5v1.5h-20V305z"/>
<path id="XMLID_87_" d="M362.1,252.8c2.5,0.9,4.4,1.3,5.6,1.3c1.3,0,2.3-0.6,3.2-1.7c0.2-0.3,0.4-0.6,0.6-0.9h1.4l-4.3,18.3H367
	c0.1-3.7-0.3-6.6-1.2-8.8c-1.7-4.2-5.2-6.3-10.7-6.3c-5.7,0-10,2.9-12.9,8.9c-2.2,4.6-3.3,10.1-3.3,16.5c0,7.4,1.6,13.2,4.8,17.5
	c3.2,4.3,7.2,6.5,12.1,6.5c3.5,0,6.7-1,9.7-3c1.8-1.2,3.6-2.9,5.6-5.2l1.3,1.5c-1.5,2.3-3.4,4.3-5.6,6c-3.8,2.9-7.9,4.4-12.4,4.4
	c-7.3,0-13.1-2.8-17.4-8.4c-4-5.2-5.9-11.6-5.9-19.4c0-7.9,2.1-14.6,6.3-20c4.4-5.7,10.1-8.5,17.2-8.5
	C357,251.4,359.5,251.9,362.1,252.8z"/>
<path id="XMLID_89_" d="M378.6,309.4l-4-4l4-4l4,4L378.6,309.4z"/>
</svg>
