<?xml version="1.0" encoding="utf-8"?>
<!-- Generator: Adobe Illustrator 19.0.0, SVG Export Plug-In . SVG Version: 6.00 Build 0)  -->
<svg version="1.1" id="Layer_1" xmlns="http://www.w3.org/2000/svg" xmlns:xlink="http://www.w3.org/1999/xlink" x="0px" y="0px"
	 viewBox="-281 233.1 396.2 94.9" style="enable-background:new -281 233.1 396.2 94.9;" xml:space="preserve">
<g id="XMLID_16_">
	<path id="XMLID_17_" d="M-229.6,262.3h-1.7c0.1-0.8,0.1-1.4,0.1-2c0-1.1-0.2-1.9-0.5-2.5c-0.4-0.4-0.8-0.9-1.1-1.3
		c-1-1.3-3.4-2-7.2-2h-3.8l0.3,40.8c0,3.3,0.3,5.4,0.9,6.2c0.7,1.1,2.6,1.8,5.6,2.1v1.5h-19.8v-1.5c2.9-0.3,4.7-0.8,5.4-1.5
		c0.8-0.8,1.3-2.8,1.2-5.9l-0.3-41.8l-14.5,0.1l2.6-10.2h1.6c0,0.5-0.1,1-0.1,1.4c0,1.1,0.2,1.9,0.6,2.3c0.4,0.4,0.8,0.8,1.2,1.1
		c0.9,1.3,3.3,2,7.2,2l25.2,0.1L-229.6,262.3z"/>
	<path id="XMLID_19_" d="M-223.8,303.7c2.8-0.4,4.6-1.1,5.3-2.3c0.5-0.8,0.7-2.8,0.7-6.1V260c0-2.9-0.4-4.8-1.1-5.6
		c-0.7-0.9-2.3-1.4-4.9-1.7v-1.5h18.8v1.5c-2.6,0.2-4.3,0.8-5,1.9c-0.7,0.9-1,2.7-1,5.4v15.9h20.7V260c0-2.9-0.4-4.8-1.1-5.6
		c-0.7-0.9-2.3-1.4-4.9-1.7v-1.5h18.9v1.5c-2.6,0.2-4.3,0.8-5,1.9c-0.6,0.9-1,2.7-1,5.4v36.3c0,3,0.4,4.9,1.1,5.7s2.3,1.4,4.9,1.7
		v1.5h-18.9v-1.5c2.8-0.4,4.6-1.1,5.3-2.3c0.5-0.8,0.7-2.8,0.7-6.1v-15.8H-211v16.8c0,2.9,0.4,4.9,1.1,5.7c0.7,0.8,2.3,1.4,4.9,1.7
		v1.5h-18.8V303.7z M-190.3,277.7v-0.8H-211v0.8H-190.3z"/>
	<path id="XMLID_22_" d="M-175,303.7c2.7-0.4,4.4-1,5.1-1.9c0.6-0.8,0.9-2.6,0.9-5.5V260c0-2.7-0.3-4.6-1-5.4c-0.8-1-2.4-1.6-5-1.9
		v-1.5h38.4l-3.3,11.7h-1.7c0.4-3.6,0.2-5.9-0.7-7c-0.9-1.1-3.6-1.6-8.4-1.6h-9.2c-1,0-1.6,0.2-1.9,0.7c-0.2,0.3-0.3,1-0.3,2.1v18.2
		h16.8l-6.3,3.2h-10.5v20.2c0,1.6,0.4,2.6,1.2,2.9c0.8,0.3,3.4,0.4,7.7,0.4c4.9,0,8.3-0.6,10.3-1.9c2.2-1.4,4.2-4.3,5.8-8.7h1.9
		l-3.1,13.8H-175V303.7z"/>
	<path id="XMLID_24_" d="M-78.6,292.5c0,4.3-1.6,7.6-4.9,10.1c-3,2.3-6.7,3.4-11,3.4s-7.9-1.1-10.8-3.3c-3.3-2.4-4.9-5.7-5-9.8
		c0-3.4,1-6.4,3.2-9c1.2-1.5,3.7-3.5,7.3-6c-3.5-2.7-5.8-5-7.1-6.7c-1.9-2.6-2.9-5.4-3-8.5c0-3.9,1.7-7.1,5.1-9.5
		c3-2.1,6.6-3.1,10.7-3.1c3.7,0,6.9,1,9.5,2.9c2.9,2.2,4.4,5,4.5,8.6c0,1.2-1.1,2.4-3.4,3.7c-3.5,1.9-5.3,2.8-5.3,2.9l-0.1-0.1
		c2-2.5,3-4.7,3-6.6c0-2.5-0.8-4.6-2.4-6.4c-1.5-1.7-3.9-2.6-7-2.7c-2.3,0-4.3,0.7-6,2.2s-2.5,3.4-2.5,5.7c0,2.5,0.9,4.8,2.8,7
		c1.5,1.7,4,3.7,7.4,6c5.3,3.4,9.3,6.9,12,10.4C-79.6,286.2-78.6,289.1-78.6,292.5z M-84.8,294.9c0-2.8-0.8-5.1-2.5-7
		c-1.5-1.6-4.9-4.4-10.2-8.2c-2.3,1.6-4,3.4-5,5.6c-1,2.3-1.6,4.5-1.6,6.6c0,3.3,0.8,6.1,2.4,8.3c1.8,2.4,4.3,3.7,7.5,3.7
		c2.8,0,5.1-0.8,6.7-2.4S-84.9,297.7-84.8,294.9z"/>
	<path id="XMLID_27_" d="M-40.7,262.3h-1.7c0.1-0.8,0.1-1.4,0.1-2c0-1.1-0.2-1.9-0.5-2.5c-0.4-0.4-0.8-0.9-1.1-1.3
		c-1-1.3-3.4-2-7.2-2h-3.8l0.3,40.8c0,3.3,0.3,5.4,0.9,6.2c0.7,1.1,2.6,1.8,5.6,2.1v1.5h-19.8v-1.5c2.9-0.3,4.7-0.8,5.4-1.5
		c0.8-0.8,1.3-2.8,1.2-5.9l-0.3-41.8l-14.5-0.1l2.6-10.2h1.6c0,0.5-0.1,1-0.1,1.4c0,1.1,0.2,1.9,0.6,2.3c0.4,0.4,0.8,0.8,1.2,1.1
		c0.9,1.3,3.3,2,7.2,2l25.2,0.1L-40.7,262.3z"/>
	<path id="XMLID_29_" d="M8.6,278.2c0,8.8-2.3,15.9-7,21.1c-4.2,4.7-9.3,7-15.3,7c-7.1,0-12.7-3-16.8-9c-3.6-5.3-5.4-11.7-5.4-19.1
		c0-8.7,2.3-15.7,6.8-21c4.2-4.8,9.3-7.2,15.5-7.2c7.2,0,12.8,3,16.9,9.1C6.8,264.4,8.6,270.8,8.6,278.2z M0.8,278.2
		c0-6.4-0.9-11.7-2.6-16c-2.5-6.1-6.5-9.2-11.9-9.2s-9.4,3-11.9,9.2c-1.8,4.4-2.7,9.8-2.7,16c0,6.3,0.9,11.7,2.7,16
		c2.5,6.1,6.5,9.1,11.9,9.2c5.4,0,9.4-3,11.9-9.2C-0.1,289.9,0.8,284.5,0.8,278.2z M-13.8,283.1l-4.8-4.8l4.8-4.8l4.8,4.8
		L-13.8,283.1z"/>
	<path id="XMLID_33_" d="M10.8,303.7c2.7-0.3,4.5-1.1,5.2-2.4c0.5-0.9,0.7-2.9,0.7-6V260c0-2.7-0.3-4.5-0.9-5.3
		c-0.8-1-2.4-1.7-4.9-2v-1.5h18.9c3.9,0,7.2,0.6,9.8,1.8c4.9,2.2,7.4,6.4,7.4,12.5c0,7.6-4.1,12.1-12.3,13.7
		c1.4,2.3,2.8,4.5,4.2,6.6c3.2,4.9,6,8.7,8.4,11.3c3.9,4.4,9.9,9.7,18.1,16c0.7,0.6,1.6,1.1,2.5,1.4c1,0.4,1.6,0.6,1.7,0.6
		c0.3,0.2,0.9,0.3,1.8,0.4c1.3,0,2,0.1,2.2,0.1v1.5H62.9c-2.7-1.9-5.3-3.8-7.7-5.6c-5.7-4.4-10.1-8.2-13.1-11.4
		c-4.1-4.4-9-11-14.7-19.9l-3.8,0.2v16.1c0,3,0.4,5,1.1,5.8c0.7,0.8,2.4,1.3,5,1.6v1.5H10.8L10.8,303.7L10.8,303.7z M34.1,275.4
		c3.6-1.7,5.4-5.1,5.4-10.1c0-4.7-1.6-7.9-4.9-9.7c-1.7-0.9-4-1.4-6.9-1.4c-1.7,0-2.7,0.1-3.1,0.3c-0.7,0.3-1.1,1.2-1.1,2.6v20.1
		C28.5,277.1,32,276.5,34.1,275.4z"/>
	<path id="XMLID_36_" d="M84.5,257.8c0-1.3-0.1-2.2-0.3-2.6c-0.1-0.2-0.4-0.5-0.9-1.1c-0.7-0.8-2.3-1.4-4.9-1.7v-1.5h18.9v1.5
		c-2.7,0.3-4.3,0.9-5,1.8c-0.7,0.8-1,2.4-1,4.6v-0.2c-0.4,1.9-0.8,3.6-1.3,5.3c-1.2,4.1-2.4,7.4-3.8,10c-1.5,2.8-3.3,5-5.3,6.5
		c-2.4,1.7-4.8,3.4-7.2,5c-2.5-1.6-5.1-3.3-7.6-4.9c-2.2-1.6-4.1-3.8-5.6-6.7c-3.1-5.7-4.8-10.6-5.1-14.8v-0.3c0-2.2-0.3-3.7-1-4.6
		c-0.7-0.8-2.3-1.4-5-1.8v-1.5h18.9v1.5c-2.6,0.3-4.2,0.9-4.9,1.7c-0.5,0.6-0.8,0.9-0.9,1.1c-0.2,0.4-0.3,1.3-0.3,2.6v4.5
		c-0.1,2,0.7,5.3,2.2,9.7c1,2.9,2.2,5.1,3.6,6.6c1.9,1.8,3.9,3.6,5.8,5.4c1.7-1.9,3.4-3.7,5.1-5.5c1.4-1.7,2.5-3.9,3.4-6.5
		c1.3-3.8,2-7.1,2.2-9.8L84.5,257.8L84.5,257.8z M77,282.9l0.2,15.7c0,3.2,0.5,5.2,1.3,5.9c0.8,0.8,2.7,1.2,5.7,1.4v1.5H63.4v-1.3
		c3.1-0.2,5.1-0.9,5.9-2c0.6-0.9,1-3,1-6.4v-15l3.7-10.9L77,282.9z"/>
</g>
</svg>
